<?xml version="1.0" standalone="no"?>
<!DOCTYPE svg PUBLIC "-//W3C//DTD SVG 20010904//EN"
 "http://www.w3.org/TR/2001/REC-SVG-20010904/DTD/svg10.dtd">
<svg version="1.0" xmlns="http://www.w3.org/2000/svg"
 width="225.000000pt" height="225.000000pt" viewBox="0 0 225.000000 225.000000"
 preserveAspectRatio="xMidYMid meet">
<metadata>
Created by potrace 1.11, written by Peter Selinger 2001-2013
</metadata>
<g transform="translate(0.000000,225.000000) scale(0.100000,-0.100000)"
fill="#000000" stroke="none">
<path d="M1120 2229 c0 -2 -20 -105 -44 -229 -24 -124 -42 -227 -39 -230 8 -8
172 -10 177 -1 5 8 -81 451 -89 459 -3 3 -5 3 -5 1z"/>
<path d="M647 1857 c40 -116 76 -213 79 -216 6 -6 97 40 134 68 l24 19 -54 64
c-30 35 -65 74 -78 88 -12 14 -53 60 -90 102 -37 42 -72 79 -78 81 -5 3 23
-90 63 -206z"/>
<path d="M1645 2047 c-16 -20 -129 -147 -170 -191 -71 -77 -106 -127 -97 -139
16 -18 140 -82 147 -76 9 10 146 412 143 421 -2 5 -12 -2 -23 -15z"/>
<path d="M955 1676 c-103 -34 -162 -71 -240 -150 -81 -82 -115 -141 -144 -246
-88 -315 111 -648 426 -715 364 -77 702 190 703 556 0 188 -97 376 -249 478
-149 100 -339 129 -496 77z"/>
<path d="M208 1638 c26 -24 76 -68 111 -98 35 -30 69 -60 75 -65 82 -75 127
-106 139 -97 6 6 28 40 47 77 29 55 33 67 20 75 -16 10 -420 150 -433 150 -4
0 14 -19 41 -42z"/>
<path d="M2020 1663 c-177 -61 -373 -133 -378 -138 -8 -7 56 -131 75 -147 13
-10 52 18 158 113 22 20 80 71 128 113 91 79 93 86 17 59z"/>
<path d="M257 1176 c-114 -24 -210 -46 -213 -48 -2 -3 8 -8 23 -11 243 -52
409 -85 412 -81 3 3 7 34 9 69 4 66 -3 116 -16 114 -4 0 -101 -20 -215 -43z"/>
<path d="M1767 1208 c-7 -20 -6 -153 1 -165 5 -7 65 1 177 23 253 50 277 55
273 59 -2 2 -95 22 -208 45 -113 23 -212 43 -221 46 -9 2 -19 -1 -22 -8z"/>
<path d="M494 861 c-16 -14 -59 -51 -94 -81 -36 -30 -85 -73 -110 -96 -25 -22
-62 -56 -83 -74 -20 -18 -36 -35 -34 -36 3 -3 249 80 380 127 31 12 57 26 57
32 0 9 -49 101 -74 138 -10 15 -14 14 -42 -10z"/>
<path d="M1675 805 c-21 -41 -36 -77 -32 -81 11 -11 437 -156 437 -149 0 8
-345 305 -354 305 -6 0 -29 -34 -51 -75z"/>
<path d="M665 443 c-32 -93 -66 -189 -76 -215 -9 -27 -15 -48 -13 -48 6 0 24
19 116 122 127 142 188 213 188 220 0 9 -132 88 -147 88 -6 0 -37 -75 -68
-167z"/>
<path d="M1444 574 c-32 -19 -63 -39 -68 -44 -8 -8 138 -184 260 -315 36 -38
37 -39 30 -12 -20 81 -141 407 -151 407 -6 0 -38 -16 -71 -36z"/>
<path d="M1041 482 c-7 -6 -11 -14 -8 -18 3 -5 8 -27 11 -48 14 -86 76 -389
81 -394 3 -3 5 -1 5 4 0 5 20 108 45 229 24 120 42 222 39 225 -10 9 -159 11
-173 2z"/>
</g>
</svg>
