<?xml version="1.0" standalone="no"?>
<!DOCTYPE svg PUBLIC "-//W3C//DTD SVG 20010904//EN"
 "http://www.w3.org/TR/2001/REC-SVG-20010904/DTD/svg10.dtd">
<svg version="1.0" xmlns="http://www.w3.org/2000/svg"
 width="225.000000pt" height="225.000000pt" viewBox="0 0 225.000000 225.000000"
 preserveAspectRatio="xMidYMid meet">
<metadata>
Created by potrace 1.11, written by Peter Selinger 2001-2013
</metadata>
<g transform="translate(0.000000,225.000000) scale(0.100000,-0.100000)"
fill="#000000" stroke="none">
<path d="M1120 2249 c0 -3 -20 -108 -45 -235 -25 -126 -45 -235 -45 -241 0
-10 26 -13 95 -13 69 0 95 3 95 13 0 22 -90 470 -95 475 -3 3 -5 3 -5 1z"/>
<path d="M564 2085 c4 -11 39 -114 78 -230 39 -115 74 -214 79 -219 4 -4 36 8
71 27 115 65 120 40 -52 238 -84 96 -159 181 -168 189 -13 13 -14 13 -8 -5z"/>
<path d="M1530 1923 c-85 -97 -158 -182 -163 -189 -5 -9 15 -26 64 -55 40 -23
79 -42 87 -43 10 -1 37 68 92 229 43 126 78 231 76 232 -1 1 -72 -77 -156
-174z"/>
<path d="M982 1690 c-106 -28 -187 -75 -268 -155 -230 -229 -230 -590 1 -820
230 -231 590 -231 820 0 231 230 231 591 1 820 -151 150 -355 207 -554 155z"/>
<path d="M165 1673 c11 -12 96 -87 189 -168 192 -167 168 -162 233 -47 19 35
31 67 27 71 -7 6 -248 90 -454 159 -10 3 -8 -2 5 -15z"/>
<path d="M1863 1611 c-122 -42 -225 -80 -228 -83 -4 -4 9 -35 29 -70 64 -115
40 -120 232 47 197 172 212 185 199 184 -6 0 -110 -35 -232 -78z"/>
<path d="M260 1180 c-102 -20 -202 -41 -224 -44 -21 -4 -36 -9 -34 -11 4 -4
458 -95 476 -95 8 0 12 28 12 95 0 92 -1 95 -22 94 -13 -1 -106 -18 -208 -39z"/>
<path d="M1760 1125 c0 -67 4 -95 12 -95 18 0 472 91 476 95 2 2 -13 7 -34 11
-22 3 -126 24 -233 45 -107 22 -201 39 -208 39 -10 0 -13 -23 -13 -95z"/>
<path d="M337 729 c-103 -89 -185 -164 -184 -166 4 -4 454 151 462 159 4 4 -9
35 -29 70 -64 115 -37 121 -249 -63z"/>
<path d="M1679 819 c-23 -40 -42 -79 -43 -86 -1 -10 69 -39 228 -94 127 -43
231 -77 233 -76 3 4 -341 306 -363 320 -9 5 -26 -15 -55 -64z"/>
<path d="M715 609 c-33 -94 -153 -454 -151 -456 2 -3 307 344 319 363 5 9 -14
25 -62 54 -88 51 -100 55 -106 39z"/>
<path d="M1437 574 c-54 -31 -75 -49 -70 -58 12 -19 317 -366 319 -363 6 5
-154 461 -162 464 -5 1 -44 -18 -87 -43z"/>
<path d="M1030 478 c0 -23 89 -471 95 -476 3 -3 5 -3 5 -1 0 3 20 108 45 235
25 126 45 235 45 242 0 9 -26 12 -95 12 -69 0 -95 -3 -95 -12z"/>
</g>
</svg>
